<?xml version="1.0" encoding="utf-8"?>
<!-- Generator: Adobe Illustrator 19.1.0, SVG Export Plug-In . SVG Version: 6.00 Build 0)  -->
<svg version="1.1" id="Layer_1" xmlns="http://www.w3.org/2000/svg" xmlns:xlink="http://www.w3.org/1999/xlink" x="0px" y="0px"
	 viewBox="-1071.4 297.2 505 606" style="enable-background:new -1071.4 297.2 505 606;" xml:space="preserve">
<style type="text/css">
	.st0{fill:#FF6600;}
	.st1{fill:#FFFFFF;}
	.st2{font-family:'Raleway-SemiBold';}
	.st3{font-size:76.5052px;}
	.st4{fill:none;}
	.st5{font-family:'Raleway-Bold';}
	.st6{font-size:36px;}
</style>
<rect x="-1071.4" y="292.4" transform="matrix(-1 5.557911e-04 -5.557911e-04 -1 -1637.5153 1196.087)" class="st0" width="505" height="610.9"/>
<path d="M-754.8,446c6.9,8.2,12.6,15.2,20.2,22.1c8.8,6.9,16.4,13.3,22.7,22.7c9.5,15.8,22.1,27.8,37.2,37.9
	c14.5,10.7,29,26.5,33.5,44.2c2.5,9.5,6.3,21.5,6.9,31c0,3.8,0,3.8-1.9,6.3c-0.6,1.3-2.5,2.5-3.2,3.8c-1.3,2.5,0,5.7,0,8.8
	c0,9.5-5,13.9-7.6,22.7c-3.2,9.5-1.3,20.2-3.8,29.7c-1.9,8.8-7.6,17.7-11.4,25.9c-5,10.1-10.1,20.8-15.8,31
	c-5,8.8-10.7,18.3-16.4,27.2c-5,8.2-15.1,19.6-15.1,30.3c0,10.7,13.9,9.5,22.1,10.7c11.4,1.9,18.3,6.3,25.9-5.1
	c10.7-17.1,22.1-34.7,27.8-54.3c1.9-5.7,6.9-17.1,4.4-22.1c-1.3-4.4-7.6-6.3-10.7-9.5c-2.5-3.8-4.4-7.6-5-12
	c-1.9-7.6,0.6-13.3,5.7-19c5.7-6.9,18.3-1.9,26.5-1.3c7.6,0.6,14.5,1.9,17,10.1c3.2,11.4,0.6,22.7-2.5,32.8
	c-5,23.4-6.3,47.4-10.1,69.5c-1.9,9.5-5,18.3-9.5,27.2c-3.8,6.3-8.8,22.7-15.8,25.9c-6.9,3.2-22.7,1.9-30.3,1.9
	c-12,0.6-24,1.3-36.6,0.6c-12,0-24,1.3-36,1.3c-12,0-21.5-2.5-32.8-4.4c-3.8-0.6-12-4.4-15.1-3.8c-3.8,0.6-6.3,8.8-8.8,13.3
	c-5,8.8-12,18.3-19.6,25.3c-16.4,15.2-39.1,22.7-60.6,14.5c-21.5-7.6-29-25.3-29.7-46.1c-0.6-11.4,6.3-25.3,13.3-34.1
	c5.7-7.6,15.1-8.8,22.1-16.4c-10.1-6.9-29.7-19-39.8-6.9c-12.6,14.5-19.6,37.3-24.6,55.6c-5,18.3,17,22.7,15.1,41.7
	c-0.6,7.6-6.3,12.6-14.5,12.6c-6.9-0.6-24.6-3.2-29.7-8.8c-4.4-5.1-2.5-21.5-1.9-27.8c1.9-11.4,4.4-21.5,6.3-32.8
	c2.5-19.6,5-36,12.6-55c3.2-7.6,8.8-13.9,13.3-20.8c1.9-3.2,0.6-5.1,4.4-6.9c3.2-1.9,9.5,0,12.6,0c20.2,1.3,44.2-3.2,63.1,3.2
	c8.2,2.5,26.5,12,35.3,8.2c6.9-2.5,8.8-17.7,11.4-23.4c3.8-8.2,10.7-12.6,16.4-20.2c6.3-9.5,7.6-23.4,11.4-34.1
	c-12.6,1.9-25.9,3.8-38.5,6.9c-12,3.2-24.6,7.6-36.6,6.3c-12.6-1.3-18.3-9.5-25.9-18.3c-8.8-10.1-18.9-19-29-27.8
	c-18.3-17.1-35.3-36.6-55.5-51.2c-9.5-6.3-19.6-11.4-30.9-14.5c-13.3-3.8-18.3-1.9-31.6,3.2c-11.4,4.4-16.4,10.1-25.2,18.3
	c-1.9,1.3-7.6,6.9-10.1,3.8c-1.9-2.5,2.5-19,3.2-22.1c2.5-10.7,7.6-22.1,15.8-29.1c8.8-8.8,22.1-13.3,32.2-20.8
	c10.7-8.2,16.4-7.6,27.1,1.9c6.9,6.9,10.7,16.4,19.6,22.1c9.5,6.3,21.5,10.1,30.9,15.8c10.1,6.3,20.2,13.9,31.6,19
	c10.1,3.8,18.9,9.5,26.5,17.1c3.8,3.8,8.8,7.6,12,12c3.8,4.4,6.9,12,12.6,13.3c6.9,2.5,23.4-9.5,29-13.3
	c10.1-6.3,19.6-14.5,29.7-21.5c3.8-3.2,10.7-8.8,12.6-13.3c2.5-5.1-1.3-10.1-2.5-14.5c-5-13.3-10.1-25.3-13.9-38.5
	c-7.6-25.9-12-52.4-19.6-78.3c-3.2-10.1-5.7-22.1-1.9-32.8c4.4-13.3,18.9-17.1,30.9-21.5c25.2-9.5,51.1-18.3,78.3-22.7
	c22.7-4.4,48.6-9.5,68.8-22.1c10.7-6.9,18.9-15.8,28.4-23.4c10.1-7.6,17-15.2,22.7-26.5c1.9-3.2,5.7-10.7,10.7-8.8
	c3.2,1.3,4.4,11.4,4.4,13.9c1.3,13.9-5,29.7-11.4,41.7c-3.2,5.7-5.7,10.7-6.3,17.1c-0.6,5.1,1.9,11.4-0.6,15.8
	c-5,10.7-20.8,5.1-30.3,5.1c-14.5-0.6-25.9,6.3-37.9,13.9c-9.5,6.3-20.2,8.8-29,17.1c-9.5,9.5-19.6,16.4-33.5,20.8
	C-725.2,444.1-749.8,440.3-754.8,446C-749.8,452.3-754.2,445.4-754.8,446z"/>
<text transform="matrix(0.99 0 0 1 -1026.2568 540.4007)" class="st1 st2 st3">Game Over!</text>
<rect x="-1047" y="713.1" class="st4" width="477.4" height="58.2"/>
<text transform="matrix(1 0 0 1 -1046.9697 739.3652)" class="st1 st5 st6">Restart by refreshing page</text>
</svg>
