<?xml version="1.0" encoding="utf-8"?>
<!-- Generator: Adobe Illustrator 19.1.0, SVG Export Plug-In . SVG Version: 6.00 Build 0)  -->
<svg version="1.1" id="Layer_1" xmlns="http://www.w3.org/2000/svg" xmlns:xlink="http://www.w3.org/1999/xlink" x="0px" y="0px"
	 viewBox="-1071.4 297.2 505 606" style="enable-background:new -1071.4 297.2 505 606;" xml:space="preserve">
<style type="text/css">
	.st0{fill:#FF0033;}
	.st1{fill:#FFFFFF;}
	.st2{font-family:'Raleway-SemiBold';}
	.st3{font-size:116px;}
	.st4{fill:none;}
	.st5{font-family:'Raleway-Bold';}
	.st6{font-size:36px;}
</style>
<rect x="-1071.4" y="297.5" class="st0" width="504.6" height="605.8"/>
<path d="M-881.3,756.5c-6.2-8.3-11.8-16-18.7-23.1c-8.1-7.7-15.5-14.1-21.1-24.4c-8.7-16.7-20.5-28.8-34.8-40.4
	c-13.7-11.5-27.4-28.2-31.1-46.1c-1.9-9.6-5.6-21.8-5.6-31.4c0-3.8,0-3.8,1.9-6.4c0.6-1.3,2.5-2.6,3.1-3.8c1.2-2.6,0-5.8,0.6-9
	c0.6-9.6,5.6-14.1,8.7-22.4c3.7-9.6,1.9-20.5,5-30.1c2.5-9,8.1-17.3,12.4-25.6c5.6-10.3,10.6-20.5,16.8-30.8
	c5.6-9,11.2-17.9,17.4-26.9c5.6-8.3,15.5-19.2,16.2-30.1c0.6-10.9-13.1-10.3-21.1-12.2c-11.2-2.6-18-7-25.5,3.8
	c-11.2,16.7-23,34-29.8,53.8c-1.9,5.8-7.5,16.7-5.6,22.4c1.2,4.5,7.5,7,9.9,10.3c2.5,3.8,3.7,7.7,4.4,12.2
	c1.2,7.7-1.2,13.5-6.2,19.2c-5.6,7-18,1.3-26.1,0c-7.5-1.3-14.3-2.6-16.2-10.9c-2.5-11.5,0.6-23.1,3.7-33.3
	c6.2-23.7,8.1-47.4,13.1-69.9c2.5-9.6,5.6-18.6,10.6-26.9c3.7-6.4,9.9-22.4,16.8-25.6c6.8-3.2,22.4-0.6,29.8-0.6
	c11.8,0,23.6,0,36.1,1.3c11.8,0.6,23.6,0,35.4,0.6s21.1,3.2,32.3,5.8c3.7,0.6,11.8,5.1,14.9,4.5c3.7-0.6,6.8-9,9.3-12.8
	c5.6-9,12.4-17.9,20.5-25c16.8-14.7,39.8-21.1,60.3-12.2c20.5,8.3,27.4,26.9,27.4,48.1c0,11.5-7.5,25.6-14.3,34
	c-6.2,7.7-15.5,8.3-22.4,15.4c9.3,7.7,28.6,20.5,38.6,9c13.1-14.1,21.1-37.2,26.7-55.1c5.6-18.6-15.5-23.7-13.1-42.9
	c1.2-7.7,6.8-12.8,14.9-12.2c6.8,0.6,24.3,4.5,28.6,10.3c4.4,5.1,1.9,21.8,0.6,28.2c-2.5,11.5-5.6,21.8-7.5,33.3
	c-3.1,19.9-6.8,36.5-14.9,55.1c-3.7,7.7-9.3,13.5-13.7,20.5c-1.9,3.2-0.6,5.1-4.4,7c-3.1,1.9-9.3-0.6-12.4-0.6
	c-19.9-1.9-43.5,1.3-62.2-5.8c-8.1-3.2-25.5-13.5-34.2-9.6c-6.8,2.6-9.3,17.3-12.4,23.1c-4.4,8.3-11.2,12.2-16.8,19.9
	c-6.8,9.6-8.7,23.1-12.4,34c12.4-1.3,25.5-2.6,37.9-5.1c11.8-2.6,24.3-6.4,36.1-4.5c12.4,1.9,17.4,10.3,24.9,19.9
	c8.1,10.9,18,19.9,27.4,29.5c17.4,17.9,33,38.4,52.2,54.5c9.3,7,18.7,12.2,29.8,16c13.1,4.5,18,2.6,31.1-1.9
	c11.2-3.8,16.8-9.6,25.5-17.3c1.9-1.3,7.5-6.4,9.9-3.2c1.9,2.6-3.1,19.2-4.4,22.4c-3.1,10.9-8.7,21.8-16.8,28.8
	c-9.3,8.3-22.4,12.2-32.3,19.9c-11.2,7.7-16.8,7-26.7-3.2c-6.8-7-9.9-17.3-18-23.1c-9.3-7-20.5-10.9-29.8-17.3
	c-9.9-7-19.3-14.7-30.5-20.5c-9.9-4.5-18-10.3-25.5-18.6c-3.7-3.8-8.1-8.3-11.2-12.8c-3.7-4.5-6.2-12.2-11.8-14.1
	c-6.8-2.6-23.6,8.3-29.2,12.2c-9.9,5.8-19.9,14.1-29.8,20.5c-3.7,3.2-11.2,8.3-13.1,12.8c-2.5,5.1,0.6,10.3,1.9,14.7
	c4.4,13.5,8.7,26.3,11.8,39.7c6.2,26.3,9.3,53.8,16.2,80.1c2.5,10.3,4.4,22.4,0.6,33.3c-5,13.5-19.3,16.7-31.1,20.5
	c-25.5,8.3-51,16-77.7,19.9c-22.4,3.2-48.5,7.7-68.4,19.2c-10.6,6.4-19.3,15.4-29.2,22.4s-17.4,14.7-23.6,25.6
	c-1.9,3.2-6.2,10.9-11.2,8.3c-3.1-1.3-3.7-11.5-3.7-14.1c-0.6-14.1,6.2-30.1,13.1-41.7c3.1-5.8,6.2-10.9,6.8-17.3
	c0.6-5.1-1.2-11.5,1.2-16c5.6-10.9,20.5-4.5,29.8-3.8c14.3,1.3,25.5-5.1,37.9-12.2c9.3-5.8,20.5-8.3,29.2-16
	c9.9-9,19.9-16,33.6-19.9C-910.6,757.1-886.3,762.2-881.3,756.5C-886.3,750.1-882,757.1-881.3,756.5z"/>
<text transform="matrix(0.6503 0 0 1 -987.9147 585.7135)" class="st1 st2 st3">You Won!</text>
<rect x="-1057.8" y="713.1" class="st4" width="477.4" height="58.2"/>
<text transform="matrix(1 0 0 1 -1057.7941 739.3652)" class="st1 st5 st6">Restart by refreshing page</text>
</svg>
